HIERARCHY
ROOT Hips
{
 OFFSET 0.000000 0.000000 0.000000
 CHANNELS 6 Xposition Yposition Zposition Yrotation Xrotation Zrotation
 JOINT Chest
 {
  OFFSET 0.000000 9.910571 -0.011835
  CHANNELS 3 Yrotation Xrotation Zrotation
  JOINT Chest2
  {
   OFFSET 0.000000 10.789473 0.021497
   CHANNELS 3 Yrotation Xrotation Zrotation
   JOINT Chest3
   {
    OFFSET 0.000000 9.748205 0.000000
    CHANNELS 3 Yrotation Xrotation Zrotation
    JOINT Chest4
    {
     OFFSET 0.000000 9.748205 0.000000
     CHANNELS 3 Yrotation Xrotation Zrotation
     JOINT Neck
     {
      OFFSET 0.000000 13.998479 0.000000
      CHANNELS 3 Yrotation Xrotation Zrotation
      JOINT Head
      {
       OFFSET 0.000000 9.082285 0.051121
       CHANNELS 3 Yrotation Xrotation Zrotation
       End Site
       {
        OFFSET 0.000000 17.246134 0.026702
       }
      }
     }
     JOINT RightCollar
     {
      OFFSET -3.284495 7.824262 0.000000
      CHANNELS 3 Yrotation Xrotation Zrotation
      JOINT RightShoulder
      {
       OFFSET -15.534540 0.000000 0.000000
       CHANNELS 3 Yrotation Xrotation Zrotation
       JOINT RightElbow
       {
        OFFSET 0.000000 -28.251216 0.000000
        CHANNELS 3 Yrotation Xrotation Zrotation
        JOINT RightWrist
        {
         OFFSET 0.000000 -23.418114 0.012537
         CHANNELS 3 Yrotation Xrotation Zrotation
         End Site
         {
          OFFSET 0.000000 -17.723959 0.000000
         }
        }
       }
      }
     }
     JOINT LeftCollar
     {
      OFFSET 3.284495 7.824262 0.000000
      CHANNELS 3 Yrotation Xrotation Zrotation
      JOINT LeftShoulder
      {
       OFFSET 15.534540 0.000000 0.000000
       CHANNELS 3 Yrotation Xrotation Zrotation
       JOINT LeftElbow
       {
        OFFSET 0.000000 -28.251216 0.000000
        CHANNELS 3 Yrotation Xrotation Zrotation
        JOINT LeftWrist
        {
         OFFSET 0.000000 -23.418114 0.012537
         CHANNELS 3 Yrotation Xrotation Zrotation
         End Site
         {
          OFFSET 0.000000 -17.723959 0.000000
         }
        }
       }
      }
     }
    }
   }
  }
 }
 JOINT RightHip
 {
  OFFSET -8.142657 0.057990 0.005917
  CHANNELS 3 Yrotation Xrotation Zrotation
  JOINT RightKnee
  {
   OFFSET 0.000000 -49.716894 0.008478
   CHANNELS 3 Yrotation Xrotation Zrotation
   JOINT RightAnkle
   {
    OFFSET 0.000000 -43.994153 0.004166
    CHANNELS 3 Yrotation Xrotation Zrotation
    JOINT RightToe
    {
     OFFSET 0.000000 -7.619154 17.822051
     CHANNELS 3 Yrotation Xrotation Zrotation
     End Site
     {
      OFFSET 0.000000 -1.595627 7.159905
     }
    }
   }
  }
 }
 JOINT LeftHip
 {
  OFFSET 8.142657 0.057990 0.005917
  CHANNELS 3 Yrotation Xrotation Zrotation
  JOINT LeftKnee
  {
   OFFSET 0.000000 -49.716894 0.008478
   CHANNELS 3 Yrotation Xrotation Zrotation
   JOINT LeftAnkle
   {
    OFFSET 0.000000 -43.994153 0.004166
    CHANNELS 3 Yrotation Xrotation Zrotation
    JOINT LeftToe
    {
     OFFSET 0.000000 -7.619154 17.822051
     CHANNELS 3 Yrotation Xrotation Zrotation
     End Site
     {
      OFFSET 0.000000 -1.595627 7.159905
     }
    }
   }
  }
 }
}
MOTION
Frames: 10
Frame Time: 0.008333
244.263545 56.044299 252.024512 -63.332236 -57.895618 4.079275 -0.676139 22.975349 -1.051847 -0.142815 10.210777 -0.546980 -0.142815 10.210777 -0.546980 -0.097600 7.658218 -0.406733 -7.129754 17.778686 -3.404957 -11.990879 -3.170418 -3.873282 -0.102018 10.919417 11.747204 15.823001 -21.893470 -19.818402 -15.884775 -38.009083 44.909268 -3.051692 -10.225728 5.332915 1.158517 10.404071 -9.972589 -9.236233 -20.935061 17.787244 11.359723 -48.703820 -32.027809 -8.740855 -6.004251 -11.614397 -8.253716 -29.725450 -6.290490 -99.359104 73.457092 -115.818755 -4.087329 -6.161745 6.249849 -0.013327 0.414004 -0.004934 4.096111 -29.139477 18.743049 129.957017 79.291877 136.215986 4.698655 -6.823002 -5.549726 -0.054466 -0.357664 -0.027036
244.261857 56.042737 252.021744 -63.334595 -57.892096 4.082331 -0.676623 22.980315 -1.050520 -0.143779 10.211834 -0.547202 -0.143779 10.211834 -0.547202 -0.098317 7.659012 -0.406882 -7.128658 17.778379 -3.408432 -11.987687 -3.171263 -3.880018 -0.100728 10.914061 11.741436 15.827919 -21.900690 -19.823077 -15.885741 -38.008390 44.914524 -3.049399 -10.238012 5.328732 1.156854 10.402172 -9.982097 -9.232156 -20.943685 17.793926 11.350551 -48.709957 -32.022513 -8.732402 -6.005912 -11.610462 -8.247297 -29.730101 -6.286266 -99.377496 73.454069 -115.832925 -4.100399 -6.164281 6.249738 -0.005952 0.415278 -0.003508 4.100052 -29.144223 18.740669 129.959895 79.290241 136.220783 4.702113 -6.826180 -5.544703 -0.059440 -0.354797 -0.031142
244.260849 56.040776 252.018471 -63.328438 -57.886162 4.072646 -0.675948 22.983388 -1.043684 -0.144876 10.213658 -0.545710 -0.144876 10.213658 -0.545710 -0.099161 7.660380 -0.405747 -7.126552 17.775114 -3.412541 -11.982483 -3.177666 -3.888051 -0.103421 10.898497 11.732569 15.832318 -21.899781 -19.826549 -15.882527 -38.010329 44.917192 -3.048394 -10.252750 5.313762 1.155991 10.395735 -9.989142 -9.233072 -20.947592 17.795592 11.353864 -48.715175 -32.020970 -8.733724 -6.008556 -11.614030 -8.251645 -29.736061 -6.279422 -99.369375 73.454412 -115.821200 -4.103016 -6.160774 6.249195 -0.003033 0.414895 -0.004878 4.095845 -29.153923 18.743608 129.978161 79.291283 136.242080 4.716385 -6.823212 -5.545807 -0.063506 -0.354761 -0.031512
244.258750 56.040868 252.015239 -63.324117 -57.887274 4.069284 -0.677908 22.991558 -1.042815 -0.144324 10.216226 -0.545137 -0.144324 10.216226 -0.545137 -0.098755 7.662306 -0.405327 -7.124780 17.774003 -3.414069 -11.978722 -3.179888 -3.891378 -0.101868 10.891431 11.733066 15.820194 -21.904369 -19.838224 -15.875278 -38.019437 44.931136 -3.049525 -10.263284 5.293047 1.144520 10.392608 -9.993892 -9.217381 -20.955894 17.793609 11.336483 -48.728702 -32.013834 -8.726156 -6.013666 -11.596770 -8.254804 -29.733758 -6.277994 -99.362231 73.443851 -115.815567 -4.088925 -6.169228 6.252371 -0.006978 0.418568 -0.006495 4.096848 -29.155376 18.751118 129.990837 79.297077 136.255619 4.709534 -6.816640 -5.545967 -0.058721 -0.358541 -0.026761
244.257521 56.039276 252.012910 -63.328178 -57.881851 4.072288 -0.678628 22.996886 -1.043468 -0.144823 10.218706 -0.546002 -0.144823 10.218706 -0.546002 -0.099112 7.664166 -0.405964 -7.121077 17.773070 -3.416141 -11.971213 -3.181880 -3.896360 -0.093012 10.882619 11.730926 15.820357 -21.912447 -19.842243 -15.874583 -38.026337 44.934080 -3.041032 -10.269510 5.280261 1.147334 10.386688 -9.998411 -9.210663 -20.967354 17.793626 11.323863 -48.736417 -32.007160 -8.731644 -6.014472 -11.600429 -8.254768 -29.739046 -6.274092 -99.344527 73.442186 -115.800979 -4.083712 -6.166690 6.256653 -0.010797 0.419464 -0.009264 4.098298 -29.163554 18.751000 130.000074 79.292258 136.265972 4.717398 -6.814358 -5.548841 -0.062928 -0.359789 -0.026303
244.256396 56.037562 252.010845 -63.329135 -57.874806 4.070395 -0.675840 23.001513 -1.039377 -0.143576 10.221542 -0.544638 -0.143576 10.221542 -0.544638 -0.098198 7.666292 -0.404963 -7.119760 17.774565 -3.419274 -11.967695 -3.179369 -3.902666 -0.094221 10.872002 11.726268 15.815512 -21.919509 -19.845831 -15.869077 -38.034899 44.933079 -3.041807 -10.275068 5.267442 1.139563 10.375245 -10.006340 -9.196427 -20.973323 17.789363 11.297433 -48.748713 -31.988319 -8.730874 -6.022929 -11.613810 -8.254266 -29.746484 -6.273950 -99.353855 73.448498 -115.806322 -4.081678 -6.167346 6.258613 -0.020012 0.419757 -0.013354 4.097422 -29.174475 18.759204 130.029968 79.292483 136.293716 4.725589 -6.808789 -5.550935 -0.059145 -0.363608 -0.022950
244.256427 56.036616 252.011000 -63.332031 -57.872140 4.076815 -0.676340 23.009687 -1.043654 -0.142453 10.224411 -0.544358 -0.142453 10.224411 -0.544358 -0.097361 7.668443 -0.404772 -7.118103 17.776441 -3.420706 -11.964118 -3.176047 -3.905981 -0.096363 10.861042 11.724378 15.812478 -21.921628 -19.850876 -15.853893 -38.047231 44.936454 -3.051917 -10.288319 5.254582 1.142442 10.361211 -10.003886 -9.198418 -20.977564 17.784280 11.285534 -48.752123 -31.974370 -8.730155 -6.028871 -11.623197 -8.253891 -29.752532 -6.278541 -99.360582 73.448982 -115.815453 -4.078892 -6.168084 6.258157 -0.022071 0.420013 -0.013287 4.105469 -29.176841 18.753374 130.019293 79.293224 136.282796 4.733200 -6.810082 -5.549497 -0.063722 -0.360168 -0.022963
244.257207 56.035063 252.011226 -63.330296 -57.864284 4.076024 -0.672322 23.015804 -1.042894 -0.140074 10.227291 -0.543341 -0.140074 10.227291 -0.543341 -0.095596 7.670600 -0.404049 -7.116912 17.778005 -3.422246 -11.961369 -3.173294 -3.909318 -0.108123 10.846041 11.720619 15.825606 -21.923801 -19.851102 -15.856782 -38.050560 44.929449 -3.055928 -10.290875 5.250902 1.128946 10.341353 -10.004127 -9.181393 -20.979026 17.782276 11.269553 -48.757714 -31.971408 -8.732464 -6.032649 -11.626457 -8.257304 -29.763049 -6.276010 -99.374849 73.453014 -115.830059 -4.089747 -6.167171 6.252967 -0.014638 0.419838 -0.009061 4.107512 -29.187668 18.747870 130.020904 79.290627 136.286517 4.740041 -6.808408 -5.547527 -0.071682 -0.359812 -0.026372
244.258010 56.032878 252.010779 -63.334759 -57.856348 4.076970 -0.670300 23.019366 -1.044993 -0.138968 10.229342 -0.543885 -0.138968 10.229342 -0.543885 -0.094757 7.672137 -0.404474 -7.110239 17.779669 -3.423512 -11.948609 -3.170512 -3.913987 -0.108913 10.831669 11.724211 15.829227 -21.927439 -19.847119 -15.856842 -38.056467 44.930479 -3.057273 -10.283488 5.239685 1.134119 10.327657 -9.997927 -9.172456 -20.984862 17.779647 11.251890 -48.759360 -31.967524 -8.733346 -6.037447 -11.621821 -8.255632 -29.773247 -6.268402 -99.378311 73.452905 -115.833828 -4.098166 -6.161323 6.251952 -0.013105 0.418534 -0.006964 4.106168 -29.198317 18.753915 130.035919 79.289529 136.296560 4.744955 -6.804800 -5.543851 -0.074092 -0.360888 -0.027965
244.258817 56.031469 252.009342 -63.336037 -57.850266 4.071193 -0.659593 23.023613 -1.034873 -0.135335 10.231557 -0.542492 -0.135335 10.231557 -0.542492 -0.092061 7.673795 -0.403493 -7.112483 17.782398 -3.426119 -11.951807 -3.165565 -3.918221 -0.124951 10.826293 11.722504 15.839183 -21.929139 -19.843557 -15.860484 -38.061314 44.930462 -3.059702 -10.287681 5.226083 1.119718 10.314393 -9.996376 -9.165292 -20.984220 17.776478 11.248072 -48.762361 -31.960657 -8.743812 -6.043708 -11.626354 -8.256074 -29.777988 -6.253560 -99.370254 73.452583 -115.823084 -4.113293 -6.155832 6.248574 -0.001320 0.419710 -0.002664 4.105392 -29.209338 18.759360 130.056528 79.288932 136.318769 4.753725 -6.800863 -5.539212 -0.080014 -0.362061 -0.032394
